<svg width="487.00434570312495px" height="122.00003662109374px" xmlns="http://www.w3.org/2000/svg" viewBox="6.497827148437523 13.99998168945313 487.00434570312495 122.00003662109374" style="background: rgba(0, 0, 0, 0);" preserveAspectRatio="xMidYMid"><defs><filter id="editing-jagged" x="-100%" y="-100%" width="300%" height="300%"><feTurbulence result="turb" baseFrequency="0.1" numOctaves="1" seed="1"></feTurbulence><feDisplacementMap in="SourceGraphic" in2="turb" scale="10"></feDisplacementMap></filter></defs><g filter="url(#editing-jagged)"><g transform="translate(79.30003842711449, 97.46500015258789)"><path d="M24.96-4.80L24.96-4.80L24.96-4.80Q24.96-9.28 26.75-18.24L26.75-18.24L17.28-18.24L13.76 0L0.38 0L8.51-42.24L22.02-42.24L18.30-23.36L27.78-23.36L31.30-42.24L44.80-42.24L44.80-42.24Q43.90-37.50 42.75-32.19L42.75-32.19L40.58-21.76L40.58-21.76Q38.14-9.60 38.14-4.29L38.14-4.29L38.14-4.29Q38.14-2.11 38.85-0.90L38.85-0.90L38.85-0.90Q35.65 1.28 31.90 1.28L31.90 1.28L31.90 1.28Q28.16 1.28 26.56-0.51L26.56-0.51L26.56-0.51Q24.96-2.30 24.96-4.80ZM51.46-31.17L51.46-31.17L51.46-31.17Q49.28-32.83 49.28-36.38L49.28-36.38L49.28-36.38Q49.28-39.94 51.62-41.79L51.62-41.79L51.62-41.79Q53.95-43.65 57.98-43.65L57.98-43.65L57.98-43.65Q60.54-43.65 66.62-42.75L66.62-42.75L70.98-42.11L70.98-42.11Q73.15-41.86 75.42-41.86L75.42-41.86L75.42-41.86Q77.70-41.86 79.23-42.82L79.23-42.82L79.23-42.82Q81.54-40.77 81.54-37.82L81.54-37.82L81.54-37.82Q81.54-34.88 78.91-32.77L78.91-32.77L78.91-32.77Q76.22-30.53 72.77-30.53L72.77-30.53L72.77-30.53Q71.10-30.53 68.42-30.98L68.42-30.98L68.42-30.98Q65.28-21.12 65.28-14.27L65.28-14.27L65.28-14.27Q65.28-7.42 68.74-3.84L68.74-3.84L68.74-3.84Q67.14-0.96 64.77 0.16L64.77 0.16L64.77 0.16Q62.40 1.28 58.85 1.28L58.85 1.28L58.85 1.28Q55.30 1.28 53.09-0.67L53.09-0.67L53.09-0.67Q50.88-2.62 50.88-6.66L50.88-6.66L50.88-6.66Q50.88-11.33 53.44-19.01L53.44-19.01L53.44-19.01Q56-26.62 59.84-32.45L59.84-32.45L59.84-32.45Q57.98-32.64 56.06-32.64L56.06-32.64L56.06-32.64Q52.10-32.64 51.46-31.17ZM84.93 0L77.57 0L89.15-42.24L102.53-42.24L105.47-18.11L117.38-42.24L128.58-42.24L129.73-10.62L129.73-10.62Q129.98-4.35 133.06-2.43L133.06-2.43L133.06-2.43Q132.35-1.15 130.30 0.06L130.30 0.06L130.30 0.06Q128.26 1.28 125.54 1.28L125.54 1.28L125.54 1.28Q122.82 1.28 121.22 0.51L121.22 0.51L121.22 0.51Q119.62-0.26 118.72-1.54L118.72-1.54L118.72-1.54Q117.12-3.84 117.12-8.26L117.12-8.26L117.12-28.03L104.51 0L96.58 0L92.10-28.74L84.93 0ZM162.56-9.86L162.56-9.86L162.56-9.86Q163.78-8.32 163.78-5.34L163.78-5.34L163.78-5.34Q163.78-2.37 161.50-0.54L161.50-0.54L161.50-0.54Q159.23 1.28 155.26 1.28L155.26 1.28L155.26 1.28Q152.96 1.28 149.38 0.77L149.38 0.77L149.38 0.77Q142.34-0.32 140.32-0.32L140.32-0.32L140.32-0.32Q138.30-0.32 137.47-0.22L137.47-0.22L137.47-0.22Q136.64-0.13 135.30 0L135.30 0L143.04-42.24L157.06-42.24L150.66-7.04L150.66-7.04Q151.49-6.91 152.26-6.91L152.26-6.91L153.86-6.91L153.86-6.91Q159.23-6.91 162.56-9.86ZM208-1.09L208-1.09L208-1.09Q202.30 1.28 195.33 1.28L195.33 1.28L195.33 1.28Q189.18 1.28 185.02-1.92L185.02-1.92L185.02-1.92Q180.48-5.31 180.48-11.33L180.48-11.33L180.48-11.33Q180.48-20.22 191.17-22.72L191.17-22.72L191.17-22.72Q189.38-27.78 189.38-31.30L189.38-31.30L189.38-31.30Q189.38-34.82 190.72-37.09L190.72-37.09L190.72-37.09Q192.06-39.36 194.37-40.83L194.37-40.83L194.37-40.83Q198.72-43.52 206.02-43.52L206.02-43.52L206.02-43.52Q211.07-43.52 214.27-41.60L214.27-41.60L214.27-41.60Q217.54-39.62 217.54-36.67L217.54-36.67L217.54-36.67Q217.54-33.34 215.23-31.49L215.23-31.49L215.23-31.49Q213.18-29.76 209.79-29.76L209.79-29.76L209.79-29.76Q207.81-29.76 207.17-29.95L207.17-29.95L207.17-29.95Q207.42-31.36 207.42-33.66L207.42-33.66L207.42-33.66Q207.42-35.97 206.66-37.54L206.66-37.54L206.66-37.54Q205.89-39.10 204.61-39.10L204.61-39.10L204.61-39.10Q202.24-39.10 201.34-37.02L201.34-37.02L201.34-37.02Q200.45-34.94 200.45-31.90L200.45-31.90L200.45-31.90Q200.45-28.86 201.06-26.08L201.06-26.08L201.06-26.08Q201.66-23.30 202.82-20.61L202.82-20.61L202.82-20.61Q205.25-15.04 209.15-11.26L209.15-11.26L209.15-11.26Q210.18-13.76 210.30-17.66L210.30-17.66L210.30-17.66Q210.30-21.12 207.94-23.17L207.94-23.17L207.94-23.17Q208.83-24 210.56-24.51L210.56-24.51L210.56-24.51Q212.29-25.02 213.82-25.02L213.82-25.02L213.82-25.02Q217.22-25.02 218.82-22.98L218.82-22.98L218.82-22.98Q220.42-20.93 220.42-17.66L220.42-17.66L220.42-17.66Q220.42-11.84 216.26-7.04L216.26-7.04L216.26-7.04Q217.86-6.59 219.33-6.59L219.33-6.59L219.33-6.59Q222.53-6.59 223.55-7.42L223.55-7.42L223.55-7.42Q224.06-6.21 224.06-4.61L224.06-4.61L224.06-4.61Q224.06-1.41 221.98-0.06L221.98-0.06L221.98-0.06Q219.90 1.28 216.19 1.28L216.19 1.28L216.19 1.28Q212.48 1.28 208-1.09ZM193.34-17.86L193.34-17.86L193.34-17.86Q191.94-16.45 191.94-13.95L191.94-13.95L191.94-13.95Q191.94-11.46 192.51-9.89L192.51-9.89L192.51-9.89Q193.09-8.32 193.98-7.17L193.98-7.17L193.98-7.17Q196.03-4.67 198.72-4.67L198.72-4.67L198.72-4.67Q201.15-4.67 202.56-5.18L202.56-5.18L202.56-5.18Q197.18-10.24 193.34-17.86ZM260.93-13.25L260.93-13.25L260.93-13.25Q262.59-12.03 262.59-9.44L262.59-9.44L262.59-9.44Q262.59-6.85 261.47-5.02L261.47-5.02L261.47-5.02Q260.35-3.20 258.18-1.79L258.18-1.79L258.18-1.79Q253.50 1.22 245.34 1.22L245.34 1.22L245.34 1.22Q237.18 1.22 232.74-3.04L232.74-3.04L232.74-3.04Q228.29-7.30 228.29-14.85L228.29-14.85L228.29-14.85Q228.29-25.54 233.86-33.66L233.86-33.66L233.86-33.66Q238.08-39.68 245.63-42.24L245.63-42.24L245.63-42.24Q249.54-43.52 253.38-43.52L253.38-43.52L253.38-43.52Q257.22-43.52 259.58-43.01L259.58-43.01L259.58-43.01Q261.95-42.50 263.74-41.47L263.74-41.47L263.74-41.47Q267.65-39.23 267.65-35.65L267.65-35.65L267.65-35.65Q267.65-32.38 264.58-29.95L264.58-29.95L264.58-29.95Q261.76-27.78 259.46-27.78L259.46-27.78L259.46-27.78Q257.15-27.78 256.19-28.10L256.19-28.10L256.19-28.10Q256.45-30.40 256.45-31.90L256.45-31.90L256.45-31.90Q256.45-33.41 256.38-34.50L256.38-34.50L256.38-34.50Q256.32-35.58 256-36.61L256-36.61L256-36.61Q255.36-38.98 253.41-38.98L253.41-38.98L253.41-38.98Q251.46-38.98 249.50-37.15L249.50-37.15L249.50-37.15Q247.55-35.33 245.89-32.26L245.89-32.26L245.89-32.26Q242.11-25.28 242.11-17.02L242.11-17.02L242.11-17.02Q242.11-13.06 244.35-10.78L244.35-10.78L244.35-10.78Q246.59-8.51 251.39-8.51L251.39-8.51L251.39-8.51Q254.98-8.51 258.37-10.88L258.37-10.88L258.37-10.88Q259.84-11.90 260.93-13.25ZM292.86-29.57L292.86-29.57L292.86-29.57Q293.82-31.49 293.82-33.28L293.82-33.28L293.82-33.28Q293.82-35.07 293.63-36.06L293.63-36.06L293.63-36.06Q293.44-37.06 292.99-37.82L292.99-37.82L292.99-37.82Q292.03-39.49 290.11-39.49L290.11-39.49L290.11-39.49Q287.74-39.49 285.82-37.76L285.82-37.76L285.82-37.76Q283.78-35.97 283.78-33.15L283.78-33.15L283.78-33.15Q283.78-31.36 285.02-29.98L285.02-29.98L285.02-29.98Q286.27-28.61 288.19-27.33L288.19-27.33L288.19-27.33Q290.11-26.05 292.29-24.77L292.29-24.77L292.29-24.77Q294.46-23.49 296.38-21.95L296.38-21.95L296.38-21.95Q300.80-18.43 300.80-13.70L300.80-13.70L300.80-13.70Q300.80-10.50 299.10-7.78L299.10-7.78L299.10-7.78Q297.41-5.06 294.59-3.07L294.59-3.07L294.59-3.07Q288.45 1.28 280.32 1.28L280.32 1.28L280.32 1.28Q273.73 1.28 270.34-0.86L270.34-0.86L270.34-0.86Q266.94-3.01 266.94-6.27L266.94-6.27L266.94-6.27Q266.94-12.10 271.49-13.57L271.49-13.57L271.49-13.57Q272.77-14.02 274.72-14.02L274.72-14.02L274.72-14.02Q276.67-14.02 278.91-13.18L278.91-13.18L278.91-13.18Q277.89-10.56 277.89-8.19L277.89-8.19L277.89-8.19Q277.89-3.07 281.54-3.07L281.54-3.07L281.54-3.07Q283.90-3.07 285.86-4.80L285.86-4.80L285.86-4.80Q287.81-6.53 287.81-8.48L287.81-8.48L287.81-8.48Q287.81-10.43 286.56-11.84L286.56-11.84L286.56-11.84Q285.31-13.25 283.46-14.37L283.46-14.37L283.46-14.37Q281.60-15.49 279.46-16.58L279.46-16.58L279.46-16.58Q277.31-17.66 275.46-19.20L275.46-19.20L275.46-19.20Q271.10-22.72 271.10-28.35L271.10-28.35L271.10-28.35Q271.10-32 272.90-34.85L272.90-34.85L272.90-34.85Q274.69-37.70 277.57-39.62L277.57-39.62L277.57-39.62Q283.33-43.52 290.40-43.52L290.40-43.52L290.40-43.52Q297.47-43.52 300.90-41.41L300.90-41.41L300.90-41.41Q304.32-39.30 304.32-35.71L304.32-35.71L304.32-35.71Q304.32-32.58 301.89-30.59L301.89-30.59L301.89-30.59Q299.78-28.93 297.22-28.93L297.22-28.93L297.22-28.93Q294.66-28.93 292.86-29.57ZM330.62-29.57L330.62-29.57L330.62-29.57Q331.58-31.49 331.58-33.28L331.58-33.28L331.58-33.28Q331.58-35.07 331.39-36.06L331.39-36.06L331.39-36.06Q331.20-37.06 330.75-37.82L330.75-37.82L330.75-37.82Q329.79-39.49 327.87-39.49L327.87-39.49L327.87-39.49Q325.50-39.49 323.58-37.76L323.58-37.76L323.58-37.76Q321.54-35.97 321.54-33.15L321.54-33.15L321.54-33.15Q321.54-31.36 322.78-29.98L322.78-29.98L322.78-29.98Q324.03-28.61 325.95-27.33L325.95-27.33L325.95-27.33Q327.87-26.05 330.05-24.77L330.05-24.77L330.05-24.77Q332.22-23.49 334.14-21.95L334.14-21.95L334.14-21.95Q338.56-18.43 338.56-13.70L338.56-13.70L338.56-13.70Q338.56-10.50 336.86-7.78L336.86-7.78L336.86-7.78Q335.17-5.06 332.35-3.07L332.35-3.07L332.35-3.07Q326.21 1.28 318.08 1.28L318.08 1.28L318.08 1.28Q311.49 1.28 308.10-0.86L308.10-0.86L308.10-0.86Q304.70-3.01 304.70-6.27L304.70-6.27L304.70-6.27Q304.70-12.10 309.25-13.57L309.25-13.57L309.25-13.57Q310.53-14.02 312.48-14.02L312.48-14.02L312.48-14.02Q314.43-14.02 316.67-13.18L316.67-13.18L316.67-13.18Q315.65-10.56 315.65-8.19L315.65-8.19L315.65-8.19Q315.65-3.07 319.30-3.07L319.30-3.07L319.30-3.07Q321.66-3.07 323.62-4.80L323.62-4.80L323.62-4.80Q325.57-6.53 325.57-8.48L325.57-8.48L325.57-8.48Q325.57-10.43 324.32-11.84L324.32-11.84L324.32-11.84Q323.07-13.25 321.22-14.37L321.22-14.37L321.22-14.37Q319.36-15.49 317.22-16.58L317.22-16.58L317.22-16.58Q315.07-17.66 313.22-19.20L313.22-19.20L313.22-19.20Q308.86-22.72 308.86-28.35L308.86-28.35L308.86-28.35Q308.86-32 310.66-34.85L310.66-34.85L310.66-34.85Q312.45-37.70 315.33-39.62L315.33-39.62L315.33-39.62Q321.09-43.52 328.16-43.52L328.16-43.52L328.16-43.52Q335.23-43.52 338.66-41.41L338.66-41.41L338.66-41.41Q342.08-39.30 342.08-35.71L342.08-35.71L342.08-35.71Q342.08-32.58 339.65-30.59L339.65-30.59L339.65-30.59Q337.54-28.93 334.98-28.93L334.98-28.93L334.98-28.93Q332.42-28.93 330.62-29.57Z" fill="#444"></path></g></g><style>text {
  font-size: 64px;
  font-family: Arial Black;
  dominant-baseline: central;
  text-anchor: middle;
}</style></svg>